<svg width="56" height="55" viewBox="0 0 56 55" fill="none" xmlns="http://www.w3.org/2000/svg">
<g id="Group 7">
<path id="Vector" d="M38.0545 35.0796L39.2624 27.2042H31.7063V22.0937C31.7063 19.9389 32.7618 17.8389 36.1463 17.8389H39.5817V11.1342C39.5817 11.1342 36.4639 10.6021 33.4829 10.6021C27.2599 10.6021 23.1923 14.3737 23.1923 21.2019V27.2042H16.2748V35.0796H23.1923V54.1178C24.6006 54.3385 26.0239 54.4492 27.4493 54.4488C28.8747 54.4492 30.298 54.3386 31.7063 54.1178V35.0796H38.0545Z" fill="white"/>
<path id="Vector_2" d="M55.226 27.6298C55.226 12.5832 43.0281 0.385254 27.9814 0.385254C12.9347 0.385254 0.736816 12.583 0.736816 27.6298C0.736816 41.2283 10.6998 52.4997 23.7244 54.5434V35.5052H16.8069V27.6298H23.7244V21.6275C23.7244 14.7993 27.792 11.0277 34.015 11.0277C36.996 11.0277 40.1138 11.5598 40.1138 11.5598V18.2645H36.6784C33.2937 18.2645 32.2384 20.3647 32.2384 22.5193V27.6298H39.7945L38.5866 35.5052H32.2384V54.5434C45.263 52.4997 55.226 41.2285 55.226 27.6298Z" fill="#1877F2"/>
</g>
</svg>
