<svg width="58" height="57" viewBox="0 0 58 57" fill="none" xmlns="http://www.w3.org/2000/svg">
<g id="Group 8">
<path id="Vector" d="M29.0526 0.385254C13.0592 0.385254 0.105225 13.2595 0.105225 29.1385C0.105225 41.845 8.39864 52.6203 19.898 56.4181C21.3454 56.6889 21.8761 55.7999 21.8761 55.0356C21.8761 54.3527 21.8519 52.5436 21.8399 50.1475C13.7877 51.8823 12.0894 46.2898 12.0894 46.2898C10.7723 42.9712 8.86904 42.0846 8.86904 42.0846C6.24689 40.3019 9.07167 40.3379 9.07167 40.3379C11.9785 40.5391 13.5054 43.2995 13.5054 43.2995C16.0866 47.6963 20.2815 46.4264 21.9364 45.6908C22.1969 43.8314 22.9423 42.5639 23.7697 41.845C17.341 41.1262 10.5842 38.6534 10.5842 27.6361C10.5842 24.4972 11.7059 21.9334 13.5633 19.9207C13.2377 19.1947 12.2607 16.2714 13.8166 12.3107C13.8166 12.3107 16.241 11.5391 21.7772 15.2579C24.0929 14.6181 26.5535 14.3018 29.014 14.2874C31.4745 14.3018 33.935 14.6181 36.2508 15.2579C41.7508 11.5391 44.1752 12.3107 44.1752 12.3107C45.7311 16.2714 44.7541 19.1947 44.4647 19.9207C46.31 21.9334 47.4318 24.4972 47.4318 27.6361C47.4318 38.6822 40.6653 41.1142 34.2245 41.8211C35.2377 42.6837 36.1785 44.4472 36.1785 47.1404C36.1785 50.9885 36.1423 54.0795 36.1423 55.014C36.1423 55.7688 36.6489 56.6673 38.1324 56.3798C49.7138 52.6083 58 41.8259 58 29.1385C58 13.2595 45.0388 0.385254 29.0526 0.385254Z" fill="white"/>
</g>
</svg>
