<svg width="55" height="56" viewBox="0 0 55 56" fill="none" xmlns="http://www.w3.org/2000/svg">
<g id="Group 5">
<g id="Group">
<path id="Vector" d="M42.0867 0.959473H13.1393C6.08613 0.959473 0.368408 6.6772 0.368408 13.7304V42.6777C0.368408 49.7309 6.08613 55.4486 13.1393 55.4486H42.0867C49.1398 55.4486 54.8576 49.7309 54.8576 42.6777V13.7304C54.8576 6.6772 49.1398 0.959473 42.0867 0.959473Z" fill="url(#paint0_radial_14_120)"/>
<path id="Vector_2" d="M42.0867 0.959473H13.1393C6.08613 0.959473 0.368408 6.6772 0.368408 13.7304V42.6777C0.368408 49.7309 6.08613 55.4486 13.1393 55.4486H42.0867C49.1398 55.4486 54.8576 49.7309 54.8576 42.6777V13.7304C54.8576 6.6772 49.1398 0.959473 42.0867 0.959473Z" fill="url(#paint1_radial_14_120)"/>
</g>
<path id="Vector_3" d="M27.615 6.91943C21.8345 6.91943 21.1089 6.94476 18.8386 7.04799C16.5726 7.15186 15.0259 7.51051 13.6726 8.03689C12.2725 8.5805 11.085 9.3078 9.90197 10.4912C8.7179 11.6745 7.99059 12.8619 7.44528 14.2614C6.91741 15.6151 6.55834 17.1625 6.45638 19.4275C6.35485 21.6979 6.32825 22.4237 6.32825 28.2045C6.32825 33.9852 6.35379 34.7085 6.45681 36.9787C6.5611 39.2447 6.91975 40.7915 7.4457 42.1448C7.98974 43.5449 8.71704 44.7324 9.90048 45.9154C11.0833 47.0994 12.2708 47.8284 13.6698 48.3721C15.0242 48.8984 16.5711 49.2571 18.8367 49.361C21.1072 49.4642 21.8321 49.4895 27.6124 49.4895C33.3936 49.4895 34.1169 49.4642 36.3871 49.361C38.6531 49.2571 40.2016 48.8984 41.5559 48.3721C42.9554 47.8284 44.1412 47.0994 45.3238 45.9154C46.5078 44.7324 47.2349 43.5449 47.7805 42.1454C48.3036 40.7915 48.6629 39.2443 48.7693 36.9791C48.8713 34.7089 48.8979 33.9852 48.8979 28.2045C48.8979 22.4237 48.8713 21.6983 48.7693 19.4279C48.6629 17.1619 48.3036 15.6154 47.7805 14.2621C47.2349 12.8619 46.5078 11.6745 45.3238 10.4912C44.1399 9.30738 42.9558 8.58008 41.5546 8.0371C40.1977 7.51051 38.6501 7.15165 36.3841 7.04799C34.1137 6.94476 33.3908 6.91943 27.6084 6.91943H27.615ZM25.7055 10.7552C26.2723 10.7543 26.9047 10.7552 27.615 10.7552C33.2983 10.7552 33.9717 10.7756 36.216 10.8776C38.2913 10.9725 39.4176 11.3192 40.1679 11.6106C41.1613 11.9963 41.8694 12.4575 42.614 13.2027C43.359 13.9477 43.82 14.6571 44.2067 15.6505C44.4981 16.3997 44.8453 17.5261 44.9398 19.6014C45.0417 21.8452 45.0639 22.5191 45.0639 28.1996C45.0639 33.8801 45.0417 34.5542 44.9398 36.7978C44.8449 38.8731 44.4981 39.9995 44.2067 40.7489C43.8211 41.7423 43.359 42.4496 42.614 43.1941C41.869 43.9391 41.1617 44.4001 40.1679 44.786C39.4185 45.0787 38.2913 45.4245 36.216 45.5195C33.9721 45.6214 33.2983 45.6436 27.615 45.6436C21.9315 45.6436 21.2579 45.6214 19.0142 45.5195C16.9389 45.4237 15.8126 45.077 15.0616 44.7856C14.0685 44.3997 13.3588 43.9386 12.6139 43.1937C11.8689 42.4487 11.4079 41.741 11.0211 40.7472C10.7297 39.9978 10.3826 38.8714 10.2881 36.7961C10.1861 34.5522 10.1657 33.8784 10.1657 28.1943C10.1657 22.5104 10.1861 21.8399 10.2881 19.596C10.383 17.5208 10.7297 16.3944 11.0211 15.6441C11.407 14.6507 11.8689 13.9413 12.6141 13.1963C13.3591 12.4514 14.0685 11.9901 15.0618 11.6036C15.8121 11.3109 16.9389 10.965 19.0142 10.8697C20.9777 10.7809 21.7387 10.7543 25.7055 10.7499V10.7552ZM38.9768 14.2893C37.5667 14.2893 36.4227 15.4323 36.4227 16.8426C36.4227 18.2528 37.5667 19.3968 38.9768 19.3968C40.387 19.3968 41.531 18.2528 41.531 16.8426C41.531 15.4325 40.387 14.2885 38.9768 14.2885V14.2893ZM27.615 17.2737C21.5786 17.2737 16.6844 22.1679 16.6844 28.2045C16.6844 34.2411 21.5786 39.133 27.615 39.133C33.6516 39.133 38.5441 34.2411 38.5441 28.2045C38.5441 22.1681 33.6512 17.2737 27.6146 17.2737H27.615ZM27.615 21.1094C31.5333 21.1094 34.7101 24.2857 34.7101 28.2045C34.7101 32.1228 31.5333 35.2996 27.615 35.2996C23.6965 35.2996 20.5201 32.1228 20.5201 28.2045C20.5201 24.2857 23.6965 21.1094 27.615 21.1094Z" fill="white"/>
</g>
<defs>
<radialGradient id="paint0_radial_14_120" cx="0" cy="0" r="1" gradientUnits="userSpaceOnUse" gradientTransform="translate(14.8421 59.6454) rotate(-90) scale(54.0028 50.2269)">
<stop stop-color="#FFDD55"/>
<stop offset="0.1" stop-color="#FFDD55"/>
<stop offset="0.5" stop-color="#FF543E"/>
<stop offset="1" stop-color="#C837AB"/>
</radialGradient>
<radialGradient id="paint1_radial_14_120" cx="0" cy="0" r="1" gradientUnits="userSpaceOnUse" gradientTransform="translate(-8.75874 4.88461) rotate(78.681) scale(24.1396 99.504)">
<stop stop-color="#3771C8"/>
<stop offset="0.128" stop-color="#3771C8"/>
<stop offset="1" stop-color="#6600FF" stop-opacity="0"/>
</radialGradient>
</defs>
</svg>
