<svg width="55" height="56" viewBox="0 0 55 56" fill="none" xmlns="http://www.w3.org/2000/svg">
<g id="Group 6">
<g id="Group">
<path id="Vector" d="M41.7183 0.959473H12.7709C5.71773 0.959473 0 6.6772 0 13.7304V42.6777C0 49.7309 5.71773 55.4486 12.7709 55.4486H41.7183C48.7714 55.4486 54.4892 49.7309 54.4892 42.6777V13.7304C54.4892 6.6772 48.7714 0.959473 41.7183 0.959473Z" fill="white"/>
<path id="Vector_2" d="M41.7183 0.959473H12.7709C5.71773 0.959473 0 6.6772 0 13.7304V42.6777C0 49.7309 5.71773 55.4486 12.7709 55.4486H41.7183C48.7714 55.4486 54.4892 49.7309 54.4892 42.6777V13.7304C54.4892 6.6772 48.7714 0.959473 41.7183 0.959473Z" fill="#0A66C2"/>
</g>
<path id="Vector_3" d="M39.3163 47.2935H45.5464C45.7721 47.2935 45.9887 47.2038 46.1483 47.0442C46.308 46.8846 46.3977 46.6681 46.3978 46.4423L46.401 33.2794C46.401 26.3995 44.9185 21.1112 36.8785 21.1112C33.8223 20.9976 30.9401 22.5731 29.3848 25.2039C29.3772 25.2167 29.3656 25.2266 29.3518 25.2322C29.3381 25.2378 29.3228 25.2387 29.3085 25.2348C29.2941 25.2309 29.2814 25.2225 29.2723 25.2107C29.2633 25.1989 29.2583 25.1845 29.2582 25.1696V22.5978C29.2582 22.372 29.1684 22.1554 29.0088 21.9957C28.8491 21.8361 28.6326 21.7464 28.4068 21.7464H22.4945C22.2687 21.7464 22.0521 21.8361 21.8924 21.9957C21.7328 22.1554 21.6431 22.372 21.6431 22.5978V46.441C21.6431 46.6668 21.7328 46.8834 21.8924 47.0431C22.0521 47.2027 22.2687 47.2924 22.4945 47.2924H28.7241C28.9499 47.2924 29.1665 47.2027 29.3261 47.0431C29.4858 46.8834 29.5755 46.6668 29.5755 46.441V34.655C29.5755 31.3224 30.2077 28.095 34.3393 28.095C38.4121 28.095 38.4649 31.9084 38.4649 34.8708V46.4421C38.4649 46.6679 38.5546 46.8845 38.7143 47.0441C38.8739 47.2038 39.0905 47.2935 39.3163 47.2935ZM8.08826 13.6511C8.08826 16.1766 10.1671 18.2544 12.6926 18.2544C15.2174 18.2542 17.295 16.1751 17.295 13.6503C17.2946 11.1255 15.2168 9.04785 12.6917 9.04785C10.1661 9.04785 8.08826 11.1259 8.08826 13.6511ZM9.56947 47.2935H15.8074C16.0332 47.2935 16.2498 47.2038 16.4094 47.0441C16.5691 46.8845 16.6588 46.6679 16.6588 46.4421V22.5978C16.6588 22.372 16.5691 22.1554 16.4094 21.9957C16.2498 21.8361 16.0332 21.7464 15.8074 21.7464H9.56947C9.34366 21.7464 9.12711 21.8361 8.96744 21.9957C8.80778 22.1554 8.71807 22.372 8.71807 22.5978V46.4421C8.71807 46.6679 8.80778 46.8845 8.96744 47.0441C9.12711 47.2038 9.34366 47.2935 9.56947 47.2935Z" fill="white"/>
</g>
</svg>
