<svg width="954" height="807" viewBox="0 0 954 807" fill="none" xmlns="http://www.w3.org/2000/svg">
<path opacity="0.2" d="M476.476 339.639C488.217 326.691 496.603 312.162 511.007 302.377C611.938 233.388 766.936 162.225 697.182 3.29277C696.999 2.8334 696.959 2.32473 697.069 1.83899C697.178 1.35326 697.431 0.915148 697.791 0.586887C698.152 0.258626 698.601 0.0569048 699.076 0.0103631C699.552 -0.0361787 700.028 0.0748288 700.438 0.327622C826.034 74.654 924.597 196.818 948.572 340.726C988.431 580.31 802.75 753.771 589.049 806.946C588.905 807.012 588.741 807.018 588.593 806.962C588.445 806.906 588.325 806.794 588.26 806.65C588.194 806.506 588.189 806.341 588.244 806.193C588.3 806.045 588.412 805.925 588.555 805.859C652.291 764.874 704.713 717.234 745.822 662.939C845.865 530.694 846.26 361.384 770.093 216.289C768.58 213.324 767.199 213.39 765.949 216.487C729.444 309.988 621.311 341.023 553.827 407.64C523.439 437.621 497.589 471.391 476.279 508.949C475.943 509.565 475.446 510.078 474.841 510.432C474.236 510.786 473.546 510.968 472.845 510.957C472.144 510.947 471.46 510.746 470.865 510.374C470.271 510.003 469.788 509.476 469.471 508.85C440.399 450.272 406.755 407.475 368.54 380.459C301.845 333.215 233.077 294.866 192.232 217.475C190.587 214.444 188.976 214.444 187.397 217.475C62.5902 458.443 145.762 670.945 367.553 804.179C367.57 804.204 367.581 804.233 367.585 804.263C367.589 804.292 367.586 804.323 367.577 804.351C367.567 804.38 367.551 804.406 367.53 804.428C367.509 804.449 367.483 804.465 367.455 804.475C183.451 762.272 12.174 625.677 0.630613 424.64C-9.33422 251.377 99.9829 91.3576 244.522 2.30438C245.004 1.97516 245.575 1.81203 246.154 1.83801C246.732 1.864 247.29 2.07779 247.748 2.4492C248.206 2.82061 248.541 3.33086 248.706 3.90787C248.871 4.48489 248.857 5.0995 248.666 5.66489C217.489 103.021 275.601 174.382 350.584 227.853C399.52 262.644 459.703 296.743 471.148 338.453C472.135 342.077 473.911 342.473 476.476 339.639Z" fill="white"/>
</svg>
